<svg width="14" height="16" viewBox="0 0 14 16" fill="none" xmlns="http://www.w3.org/2000/svg">
<path d="M12.7369 3.09792H9.87258V2.63092C9.87258 1.79598 9.1933 1.1167 8.35836 1.1167H5.6356C4.80065 1.1167 4.12137 1.79598 4.12137 2.63092V3.09792H1.25709C1.04482 3.09792 0.875 3.26774 0.875 3.48001C0.875 3.69229 1.04482 3.86211 1.25709 3.86211H1.94769V12.8399C1.94769 13.9663 2.86471 14.8834 3.99118 14.8834H10.0028C11.1292 14.8834 12.0463 13.9663 12.0463 12.8399V3.86211H12.7369C12.9491 3.86211 13.119 3.69229 13.119 3.48001C13.119 3.26774 12.9491 3.09792 12.7369 3.09792ZM4.88556 2.63092C4.88556 2.21769 5.22237 1.88089 5.6356 1.88089H8.35836C8.77159 1.88089 9.10839 2.21769 9.10839 2.63092V3.09792H4.88556V2.63092ZM11.2821 12.8399C11.2821 13.5446 10.7075 14.1192 10.0028 14.1192H3.99118C3.28643 14.1192 2.71188 13.5446 2.71188 12.8399V3.86211H11.2849V12.8399H11.2821Z" fill="white"/>
<path d="M12.7369 3.09792H9.87258V2.63092C9.87258 1.79598 9.1933 1.1167 8.35836 1.1167H5.6356C4.80065 1.1167 4.12137 1.79598 4.12137 2.63092V3.09792H1.25709C1.04482 3.09792 0.875 3.26774 0.875 3.48001C0.875 3.69229 1.04482 3.86211 1.25709 3.86211H1.94769V12.8399C1.94769 13.9663 2.86471 14.8834 3.99118 14.8834H10.0028C11.1292 14.8834 12.0463 13.9663 12.0463 12.8399V3.86211H12.7369C12.9491 3.86211 13.119 3.69229 13.119 3.48001C13.119 3.26774 12.9491 3.09792 12.7369 3.09792ZM4.88556 2.63092C4.88556 2.21769 5.22237 1.88089 5.6356 1.88089H8.35836C8.77159 1.88089 9.10839 2.21769 9.10839 2.63092V3.09792H4.88556V2.63092ZM11.2821 12.8399C11.2821 13.5446 10.7075 14.1192 10.0028 14.1192H3.99118C3.28643 14.1192 2.71188 13.5446 2.71188 12.8399V3.86211H11.2849V12.8399H11.2821Z" fill="#1E212A" fill-opacity="0.8"/>
<path d="M12.7369 3.09792H9.87258V2.63092C9.87258 1.79598 9.1933 1.1167 8.35836 1.1167H5.6356C4.80065 1.1167 4.12137 1.79598 4.12137 2.63092V3.09792H1.25709C1.04482 3.09792 0.875 3.26774 0.875 3.48001C0.875 3.69229 1.04482 3.86211 1.25709 3.86211H1.94769V12.8399C1.94769 13.9663 2.86471 14.8834 3.99118 14.8834H10.0028C11.1292 14.8834 12.0463 13.9663 12.0463 12.8399V3.86211H12.7369C12.9491 3.86211 13.119 3.69229 13.119 3.48001C13.119 3.26774 12.9491 3.09792 12.7369 3.09792ZM4.88556 2.63092C4.88556 2.21769 5.22237 1.88089 5.6356 1.88089H8.35836C8.77159 1.88089 9.10839 2.21769 9.10839 2.63092V3.09792H4.88556V2.63092ZM11.2821 12.8399C11.2821 13.5446 10.7075 14.1192 10.0028 14.1192H3.99118C3.28643 14.1192 2.71188 13.5446 2.71188 12.8399V3.86211H11.2849V12.8399H11.2821Z" stroke="white" stroke-width="0.15"/>
<path d="M12.7369 3.09792H9.87258V2.63092C9.87258 1.79598 9.1933 1.1167 8.35836 1.1167H5.6356C4.80065 1.1167 4.12137 1.79598 4.12137 2.63092V3.09792H1.25709C1.04482 3.09792 0.875 3.26774 0.875 3.48001C0.875 3.69229 1.04482 3.86211 1.25709 3.86211H1.94769V12.8399C1.94769 13.9663 2.86471 14.8834 3.99118 14.8834H10.0028C11.1292 14.8834 12.0463 13.9663 12.0463 12.8399V3.86211H12.7369C12.9491 3.86211 13.119 3.69229 13.119 3.48001C13.119 3.26774 12.9491 3.09792 12.7369 3.09792ZM4.88556 2.63092C4.88556 2.21769 5.22237 1.88089 5.6356 1.88089H8.35836C8.77159 1.88089 9.10839 2.21769 9.10839 2.63092V3.09792H4.88556V2.63092ZM11.2821 12.8399C11.2821 13.5446 10.7075 14.1192 10.0028 14.1192H3.99118C3.28643 14.1192 2.71188 13.5446 2.71188 12.8399V3.86211H11.2849V12.8399H11.2821Z" stroke="#1E212A" stroke-opacity="0.8" stroke-width="0.15"/>
<path d="M6.99698 12.7493C7.20924 12.7493 7.37906 12.5794 7.37906 12.3672V5.61403C7.37906 5.40175 7.20924 5.23193 6.99698 5.23193C6.78471 5.23193 6.61489 5.40175 6.61489 5.61403V12.3643C6.61489 12.5766 6.78471 12.7493 6.99698 12.7493Z" fill="white"/>
<path d="M6.99698 12.7493C7.20924 12.7493 7.37906 12.5794 7.37906 12.3672V5.61403C7.37906 5.40175 7.20924 5.23193 6.99698 5.23193C6.78471 5.23193 6.61489 5.40175 6.61489 5.61403V12.3643C6.61489 12.5766 6.78471 12.7493 6.99698 12.7493Z" fill="#1E212A" fill-opacity="0.8"/>
<path d="M6.99698 12.7493C7.20924 12.7493 7.37906 12.5794 7.37906 12.3672V5.61403C7.37906 5.40175 7.20924 5.23193 6.99698 5.23193C6.78471 5.23193 6.61489 5.40175 6.61489 5.61403V12.3643C6.61489 12.5766 6.78471 12.7493 6.99698 12.7493Z" stroke="white" stroke-width="0.15"/>
<path d="M6.99698 12.7493C7.20924 12.7493 7.37906 12.5794 7.37906 12.3672V5.61403C7.37906 5.40175 7.20924 5.23193 6.99698 5.23193C6.78471 5.23193 6.61489 5.40175 6.61489 5.61403V12.3643C6.61489 12.5766 6.78471 12.7493 6.99698 12.7493Z" stroke="#1E212A" stroke-opacity="0.8" stroke-width="0.15"/>
<path d="M4.50354 12.3276C4.71582 12.3276 4.88563 12.1578 4.88563 11.9455V6.03297C4.88563 5.8207 4.71582 5.65088 4.50354 5.65088C4.29127 5.65088 4.12145 5.8207 4.12145 6.03297V11.9455C4.12145 12.1578 4.2941 12.3276 4.50354 12.3276Z" fill="white"/>
<path d="M4.50354 12.3276C4.71582 12.3276 4.88563 12.1578 4.88563 11.9455V6.03297C4.88563 5.8207 4.71582 5.65088 4.50354 5.65088C4.29127 5.65088 4.12145 5.8207 4.12145 6.03297V11.9455C4.12145 12.1578 4.2941 12.3276 4.50354 12.3276Z" fill="#1E212A" fill-opacity="0.8"/>
<path d="M4.50354 12.3276C4.71582 12.3276 4.88563 12.1578 4.88563 11.9455V6.03297C4.88563 5.8207 4.71582 5.65088 4.50354 5.65088C4.29127 5.65088 4.12145 5.8207 4.12145 6.03297V11.9455C4.12145 12.1578 4.2941 12.3276 4.50354 12.3276Z" stroke="white" stroke-width="0.15"/>
<path d="M4.50354 12.3276C4.71582 12.3276 4.88563 12.1578 4.88563 11.9455V6.03297C4.88563 5.8207 4.71582 5.65088 4.50354 5.65088C4.29127 5.65088 4.12145 5.8207 4.12145 6.03297V11.9455C4.12145 12.1578 4.2941 12.3276 4.50354 12.3276Z" stroke="#1E212A" stroke-opacity="0.8" stroke-width="0.15"/>
<path d="M9.49043 12.3276C9.7027 12.3276 9.87252 12.1578 9.87252 11.9455V6.03297C9.87252 5.8207 9.7027 5.65088 9.49043 5.65088C9.27816 5.65088 9.10834 5.8207 9.10834 6.03297V11.9455C9.10834 12.1578 9.27816 12.3276 9.49043 12.3276Z" fill="white"/>
<path d="M9.49043 12.3276C9.7027 12.3276 9.87252 12.1578 9.87252 11.9455V6.03297C9.87252 5.8207 9.7027 5.65088 9.49043 5.65088C9.27816 5.65088 9.10834 5.8207 9.10834 6.03297V11.9455C9.10834 12.1578 9.27816 12.3276 9.49043 12.3276Z" fill="#1E212A" fill-opacity="0.8"/>
<path d="M9.49043 12.3276C9.7027 12.3276 9.87252 12.1578 9.87252 11.9455V6.03297C9.87252 5.8207 9.7027 5.65088 9.49043 5.65088C9.27816 5.65088 9.10834 5.8207 9.10834 6.03297V11.9455C9.10834 12.1578 9.27816 12.3276 9.49043 12.3276Z" stroke="white" stroke-width="0.15"/>
<path d="M9.49043 12.3276C9.7027 12.3276 9.87252 12.1578 9.87252 11.9455V6.03297C9.87252 5.8207 9.7027 5.65088 9.49043 5.65088C9.27816 5.65088 9.10834 5.8207 9.10834 6.03297V11.9455C9.10834 12.1578 9.27816 12.3276 9.49043 12.3276Z" stroke="#1E212A" stroke-opacity="0.8" stroke-width="0.15"/>
</svg>
